<svg width="78" height="24" viewBox="0 0 78 24" fill="none" xmlns="http://www.w3.org/2000/svg">
<g clip-path="url(#clip0_6067_56349)">
<path fill-rule="evenodd" clip-rule="evenodd" d="M11.9946 -0.000518799C18.619 -0.000518799 23.9891 5.3696 23.9891 11.994C23.9891 14.2362 23.3734 16.3338 22.3027 18.1288C21.8036 18.124 21.3239 18.1531 20.9543 17.7286C20.6361 17.3634 20.2473 16.6866 19.625 15.5121L19.6231 15.5081C19.298 14.9019 18.8904 14.1597 18.4134 13.5285C18.178 13.2173 17.9238 12.9304 17.6498 12.6928C20.4132 11.2245 21.2544 7.22193 18.8687 5.14266C17.9128 4.36436 16.2819 3.78284 14.4082 3.7582C13.1268 3.74091 3.39544 4.13006 3.25162 4.15764C3.09272 4.18854 2.95112 4.22385 2.82459 4.26394C5.0245 1.65612 8.31609 -0.000518799 11.9946 -0.000518799ZM20.6001 20.3482C18.4204 22.5933 15.3708 23.9885 11.9946 23.9885C8.21715 23.9885 4.84795 22.2414 2.64951 19.5118L3.63856 19.525C4.83103 19.5412 5.97898 19.6468 7.0931 19.749C8.16822 19.848 9.21282 19.944 10.2409 19.9576C11.7879 19.9782 12.7122 19.6203 13.261 19.1237C13.8572 18.5841 14.0047 17.911 14.0121 17.3476C14.0176 16.9378 13.8841 16.4961 13.624 16.1694C13.3743 15.8561 13.0168 15.6427 12.5589 15.6368C12.3172 15.6335 12.006 15.6295 11.7007 15.9267L11.5477 16.2816C11.5411 16.7454 11.3046 17.1346 10.9136 17.4101C10.4638 17.7271 9.81568 17.9033 9.06312 17.8934C8.17227 17.8816 7.09898 17.8518 6.27176 17.7249C5.65898 17.6311 5.20583 17.5329 5.20694 17.4454C5.20914 17.2858 5.35443 17.0691 5.46735 16.8999C5.51664 16.8264 5.48096 16.8826 5.52326 16.8172L6.22247 15.7538C7.80813 13.3442 10.5943 9.1114 12.1881 6.86992L12.1918 6.86588C12.5897 6.29429 12.8196 5.99305 13.0569 5.86505C13.2838 5.74257 13.6274 5.73153 14.2526 5.73962C16.8082 5.77383 17.5336 7.34699 17.5148 8.76272C17.5067 9.35821 17.2261 10.1446 16.6177 10.7103C16.1587 11.1373 15.5047 11.4356 14.6293 11.4239C14.0647 11.4165 13.6608 11.1506 13.6597 11.1498L13.2544 10.8777L12.9682 11.2756C12.8623 11.4228 12.7792 11.5997 12.7222 11.7781C12.6607 11.9704 12.6265 12.1683 12.624 12.3353C12.6184 12.7513 12.8281 13.0514 13.119 13.2593C13.446 13.4925 13.8948 13.5918 14.1695 13.5954C15.7239 13.616 16.8071 15.7222 17.5659 17.1967L17.6115 17.2854L17.6123 17.285L17.6252 17.3104C18.1761 18.3881 19.2634 20.0937 20.6001 20.3482ZM1.4953 17.7959C0.543022 16.0767 0.000488281 14.0986 0.000488281 11.994C0.000488281 10.0611 0.458421 8.23526 1.27056 6.61797C1.26063 6.73972 1.25474 6.85999 1.25327 6.97475C1.24629 7.50036 1.39562 8.02781 1.64426 8.42211C1.9216 8.86238 2.32767 9.15407 2.80804 9.16069L3.31562 9.1673L3.32224 8.65973C3.33548 7.67471 3.78349 7.01044 4.45622 6.57972C5.38459 5.9846 6.74257 5.79038 8.04022 5.80767C8.07664 5.8084 8.22156 5.80583 8.38193 5.80326C8.90275 5.79516 9.6851 5.78229 9.91131 5.95296C9.93522 5.97098 9.83554 5.96915 9.73733 6.09936L2.38504 17.1324C2.28095 17.2887 2.0702 17.5002 1.80757 17.6558C1.70716 17.7154 1.6016 17.7647 1.4953 17.7959Z" fill="white"/>
<path fill-rule="evenodd" clip-rule="evenodd" d="M33.1836 15.1212C33.3186 15.1598 33.5143 15.1686 33.7379 15.1686H35.2905C36.1659 15.1686 36.7721 14.9902 37.1822 14.7C37.5857 14.415 37.8008 14.0177 37.8979 13.5756L37.8994 13.5701C37.913 13.5208 37.9645 13.4921 38.0138 13.5057C38.0156 13.5064 38.7285 13.6896 38.7285 14.4297C38.7285 14.8883 38.4879 15.3459 38.0447 15.6733C37.6559 15.9609 37.1108 16.1488 36.4362 16.1488C36.1104 16.1488 35.8518 16.1393 35.5009 16.1264C34.7759 16.0992 33.6467 16.0565 30.5041 16.0565H30.0789C30.0278 16.0565 29.9858 16.015 29.9858 15.9638V15.4831C29.9858 15.432 30.0278 15.3904 30.0789 15.3904H30.3378C30.6494 15.3904 31.0573 15.0594 31.5958 14.4289C32.1497 13.7797 32.8316 12.8197 33.6798 11.5809C34.0852 10.9898 34.6016 10.2178 35.0168 9.53035C35.4251 8.85504 35.7333 8.26874 35.7333 8.03849C35.7333 7.98957 35.7201 7.96419 35.6932 7.95279C35.644 7.93182 35.5568 7.92814 35.4383 7.92814C35.3063 7.92814 34.9962 7.92373 34.681 7.91895C34.382 7.91416 34.0782 7.90975 33.8858 7.90975C33.3061 7.90975 32.5948 8.05872 32.089 8.42102C31.7098 8.69247 31.4472 9.08639 31.4472 9.63113C31.4472 9.69366 31.4472 9.74295 31.4512 9.7915C31.4553 9.83895 31.4637 9.88897 31.4799 9.95481C31.4825 9.96364 31.484 9.97247 31.484 9.98203C31.484 10.0332 31.4424 10.0751 31.3909 10.0751C31.1066 10.0751 30.8134 9.91508 30.5979 9.66092C30.3982 9.42552 30.2632 9.1081 30.2632 8.76235C30.2632 8.17862 30.5648 7.75637 31.0749 7.47462C31.6197 7.17411 32.4057 7.03729 33.3131 7.03729C33.9366 7.03729 34.5346 7.05531 35.1371 7.07407C35.7355 7.09246 36.3388 7.11086 37.0093 7.11086C37.7986 7.11086 38.5475 7.06156 38.6233 7.05642L38.6354 7.05569C38.6869 7.05569 38.7285 7.09724 38.7285 7.14837V7.70268C38.7285 7.75417 38.6869 7.79573 38.6354 7.79573H38.3213C38.1223 7.79573 37.9086 7.85385 37.692 7.98957C37.4956 8.11316 37.2969 8.30074 37.1049 8.56704L37.1031 8.56962C36.5547 9.34166 35.7981 10.4727 35.0919 11.55C34.098 13.0665 33.2072 14.4709 33.1391 14.6151L33.1332 14.6268C33.0924 14.6919 33.0637 14.7519 33.0453 14.8071C33.0266 14.8641 33.0178 14.917 33.0178 14.9659C33.0178 15.0443 33.0803 15.0917 33.1836 15.1212ZM66.6575 4.33826C67.2037 4.33826 67.6462 4.78074 67.6462 5.32694C67.6462 5.87315 67.2037 6.316 66.6575 6.316C66.1113 6.316 65.6688 5.87315 65.6688 5.32694C65.6688 4.78074 66.1113 4.33826 66.6575 4.33826ZM72.188 7.51803C72.7247 7.20906 73.3503 7.01853 74.0308 7.01853C75.4138 7.01853 76.3267 7.50074 76.9189 8.21982C77.6975 9.16584 77.9123 10.5165 77.9123 11.7133C77.9123 12.8933 77.468 14.1207 76.6978 15.0178C76.0023 15.8281 75.0415 16.3706 73.9013 16.3706C73.226 16.3706 72.7471 16.271 72.423 16.1194C71.999 15.9215 71.8312 15.6324 71.8312 15.354C71.8312 14.878 72.224 14.6298 72.2252 14.629L72.2296 14.6264C72.2737 14.6014 72.3304 14.6169 72.3557 14.6614C72.3568 14.6632 72.7548 15.3904 73.9752 15.3904C74.6859 15.3904 75.3133 15.009 75.7628 14.3679C76.2152 13.7231 76.4882 12.8164 76.4882 11.7685C76.4882 9.69513 75.758 8.03591 74.0308 8.03591C73.2139 8.03591 72.4558 8.44787 71.8956 9.07315C71.3133 9.72309 70.9452 10.6029 70.9452 11.4912V18.2185C70.9452 18.497 71.0349 18.7795 71.2335 18.9781C71.3994 19.144 71.644 19.2528 71.9795 19.2528H72.5341C72.5853 19.2528 72.6268 19.2944 72.6268 19.3455V19.8447C72.6268 19.8958 72.5853 19.9374 72.5341 19.9374H68.4127C68.3616 19.9374 68.3197 19.8958 68.3197 19.8447V19.3455C68.3197 19.2944 68.3616 19.2528 68.4127 19.2528H68.8379C69.0612 19.2528 69.2172 19.1631 69.3235 19.0395C69.486 18.8505 69.5394 18.5823 69.5394 18.4216V8.77485C69.5394 8.51407 69.4974 8.25992 69.3672 8.0749C69.2407 7.89578 69.0248 7.77734 68.6713 7.77734H68.1538C68.1027 7.77734 68.0611 7.7354 68.0611 7.68428V7.22231C68.0611 7.17081 68.1027 7.12961 68.1538 7.12961H69.614C69.9929 7.12961 70.3283 7.25725 70.5678 7.47867C70.8032 7.69642 70.9452 8.00355 70.9452 8.36805V8.63545C71.263 8.19885 71.6867 7.80639 72.188 7.51803ZM67.6113 15.1087C67.7963 15.2973 68.0515 15.3904 68.2652 15.3904H68.7088C68.76 15.3904 68.8019 15.432 68.8019 15.4831V15.9638C68.8019 16.015 68.76 16.0565 68.7088 16.0565H64.6062C64.5547 16.0565 64.5131 16.015 64.5131 15.9638V15.4831C64.5131 15.432 64.5547 15.3904 64.6062 15.3904H65.0498C65.2675 15.3904 65.528 15.311 65.7126 15.1226C65.8557 14.9766 65.9546 14.7629 65.9546 14.4668V8.68217C65.9546 8.39601 65.8866 8.17421 65.7435 8.02856C65.6067 7.88879 65.3959 7.81412 65.105 7.81412H64.6614C64.6102 7.81412 64.5687 7.77256 64.5687 7.72143V7.24069C64.5687 7.18957 64.6102 7.14801 64.6614 7.14801H65.9366C66.4942 7.14801 66.8499 7.29402 67.0687 7.56363C67.2854 7.82993 67.36 8.20916 67.36 8.68217V14.4668C67.36 14.7445 67.463 14.9578 67.6113 15.1087ZM60.7427 7.29918C61.1568 7.02295 61.642 6.85228 62.1238 6.85228C62.8543 6.85228 63.3759 7.02957 63.7264 7.32124C64.1317 7.65853 64.305 8.14369 64.305 8.68217C64.305 8.95325 64.2207 9.25559 64.0493 9.47481C63.9018 9.6635 63.6918 9.7915 63.4174 9.7915C63.0224 9.7915 62.8701 9.56161 62.8396 9.50717C62.8146 9.46708 62.8241 9.41339 62.8628 9.38433C62.8885 9.3652 62.9371 9.2567 62.9797 9.12502C63.018 9.00696 63.047 8.87527 63.047 8.77485C63.047 8.49899 62.9646 8.2349 62.7782 8.05172C62.6193 7.8954 62.3809 7.79573 62.0499 7.79573C61.4367 7.79573 60.9302 8.17568 60.5679 8.77191C60.1678 9.43141 59.9434 10.3528 59.9434 11.3249V14.3561C59.9434 14.632 59.9864 14.9284 60.1336 15.1289C60.2406 15.2749 60.4083 15.372 60.6636 15.372H60.9409C60.9924 15.372 61.034 15.4136 61.034 15.4647V15.9451C61.034 15.9966 60.9924 16.0381 60.9409 16.0381H57.3003C57.2488 16.0381 57.2072 15.9966 57.2072 15.9451V15.4647C57.2072 15.4136 57.2488 15.372 57.3003 15.372H57.799C58.0506 15.372 58.2187 15.2782 58.329 15.1458C58.492 14.9505 58.538 14.668 58.538 14.4668V8.83003C58.538 8.45817 58.4578 8.20806 58.3294 8.04842C58.1808 7.86341 57.9612 7.79573 57.7251 7.79573H57.3003C57.2488 7.79573 57.2072 7.75417 57.2072 7.70268V7.22231C57.2072 7.17081 57.2488 7.12961 57.3003 7.12961H58.6123C59.0286 7.12961 59.3424 7.24585 59.5634 7.46654C59.7348 7.63868 59.8474 7.87114 59.9048 8.15951C60.1078 7.82663 60.3995 7.52869 60.7386 7.30212L60.7427 7.29918ZM57.18 10.5488C57.18 11.9907 56.6908 11.9907 55.5164 11.9907C54.3622 11.9907 52.8372 11.9907 51.4152 12.0135C50.9992 12.0205 50.5891 12.0289 50.1948 12.04C50.2706 12.8528 50.574 13.6407 51.0584 14.2347C51.5638 14.8538 52.2667 15.2609 53.1141 15.2609C53.9969 15.2609 54.6078 15.0193 55.0441 14.7015C55.4803 14.3837 55.747 13.9865 55.9364 13.6793C55.9592 13.6422 56.0055 13.6253 56.0478 13.6407C56.2071 13.7007 56.3601 13.8257 56.4745 13.9662C56.5992 14.1189 56.6812 14.2943 56.6812 14.4297C56.6812 14.9082 56.3487 15.4191 55.63 15.7785C55.0533 16.0668 54.2239 16.2599 53.1141 16.2599C51.7198 16.2599 50.6913 15.7549 49.98 15.0071C49.2197 14.2075 48.825 13.1309 48.7353 12.0984C48.3884 12.1176 48.074 12.1407 47.804 12.1676C47.7014 13.2946 47.2909 14.4326 46.4434 15.2374C45.7324 15.9131 44.7165 16.3522 43.3207 16.3522C41.8233 16.3522 40.7342 15.841 39.9886 15.0741C39.0761 14.1358 38.6814 12.8164 38.6814 11.5839C38.6814 9.30452 39.6999 6.68603 43.3207 6.68603C44.757 6.68603 45.7762 7.13293 46.4787 7.81854C47.3284 8.6476 47.7102 9.82276 47.8054 10.977C47.9511 10.9733 48.092 10.9733 48.2306 10.9733H48.7456C48.8563 9.7996 49.2642 8.76493 49.9645 8.00392C50.7311 7.17118 51.8448 6.66727 53.2988 6.66727C54.4284 6.66727 55.402 7.06892 56.0916 7.75858C56.7761 8.44271 57.18 9.4097 57.18 10.5488ZM51.0496 8.73072C50.5814 9.3332 50.3066 10.1325 50.2128 10.9733H55.2949C55.4678 10.9733 55.5929 10.9512 55.6686 10.8902C55.74 10.8328 55.7746 10.7309 55.7746 10.5672C55.7746 9.75803 55.5495 8.98083 55.0713 8.43573C54.6593 7.96566 54.0561 7.66626 53.2432 7.66626C52.277 7.66626 51.5509 8.08593 51.0496 8.73072ZM40.9997 8.72078C40.3575 9.4932 40.124 10.5948 40.124 11.5839C40.124 12.6049 40.3774 13.63 40.9931 14.3465C41.4992 14.9347 42.2544 15.3165 43.3207 15.3165C44.3395 15.3165 45.0685 14.9328 45.5596 14.3418C46.1543 13.6256 46.4066 12.6031 46.4066 11.5839C46.4066 9.72493 45.7608 7.7218 43.3207 7.7218C42.2422 7.7218 41.4963 8.12345 40.9997 8.72078Z" fill="white"/>
</g>
<defs>
<clipPath id="clip0_6067_56349">
<rect width="77.931" height="24" fill="white"/>
</clipPath>
</defs>
</svg>
